<svg xmlns="http://www.w3.org/2000/svg" xmlns:xlink="http://www.w3.org/1999/xlink" width="166" height="48.808" viewBox="0 0 166 48.808">
  <defs>
    <linearGradient id="linear-gradient" y1="0.5" x2="1" y2="0.5" gradientUnits="objectBoundingBox">
      <stop offset="0" stop-color="#ffb41e"/>
      <stop offset="1" stop-color="#ff5321"/>
    </linearGradient>
    <clipPath id="clip-path">
      <path id="Контур_317" data-name="Контур 317" d="M78.586,150.157c.589-.034,2.632-.645,3.438-.806a54.75,54.75,0,0,1,11.763-.94,50.986,50.986,0,0,1,7.708.853c3.718.65,5.929,2.319,8.661,1.343,7.3-2.608,17.032-2.778,24.536-1.239.757.155,2.805.758,3.366.788l.007-25.675a8.5,8.5,0,0,0-3.713-2.138l-.032-1.665a8.53,8.53,0,0,0-1.821-.874c-.742-.248-1.946-.363-2.032-.619a7.652,7.652,0,0,0-.067-2.152c-.865-.538-6.164-.2-7.447-.016a21.554,21.554,0,0,0-10.856,4.808l-3.784,3.993c-.284-.211-1.165-1.5-1.336-1.665-2.46-2.423-3.826-3.79-7.289-5.376A22.069,22.069,0,0,0,93.579,117c-1.27-.18-6.482-.494-7.352.028a7.748,7.748,0,0,0-.066,2.155c-.228.3-.613.242-1.062.353a8.875,8.875,0,0,0-2.814,1.14v1.666a8.406,8.406,0,0,0-3.716,2.138Zm30.778-3.37c-.1-1.879-.016-4-.016-5.909V129.149c0-1.285.053-1.164.734-2.177a12.158,12.158,0,0,1,2.069-2.392c.241-.231.5-.558.708-.743,4.346-3.917,9.759-5.128,15.534-4.973v20.242a24.185,24.185,0,0,0-11.383,1.953,20.531,20.531,0,0,0-4.222,2.527A43.461,43.461,0,0,0,109.365,146.787ZM88.244,118.864a22.784,22.784,0,0,1,10.187,1.592,18.345,18.345,0,0,1,6.832,4.9c.465.578.887,1.026,1.332,1.673a2.486,2.486,0,0,1,.685,2.227q0,2.906,0,5.812c0,2.951.125,9.174-.016,11.722a39.436,39.436,0,0,0-3.481-3.248A23.112,23.112,0,0,0,88.237,139.1ZM84.378,122a4.554,4.554,0,0,1,1.782-.527l.017,19.861a19.553,19.553,0,0,0,2.313-.153c4.779-.311,10.4.941,14.092,4.02-1.32-.426-2.529-.926-3.907-1.326a37.927,37.927,0,0,0-9.354-1.2l-4.952.194Zm46.106-.526a4.568,4.568,0,0,1,1.777.527l.006,20.873c-.645.052-1.724-.117-2.429-.145a41.879,41.879,0,0,0-7.382.272,33.042,33.042,0,0,0-4.338.827c-1.356.363-3.231,1.121-3.868,1.283,3.672-2.993,9.26-4.248,13.993-3.921a16.939,16.939,0,0,0,2.226.143ZM80.7,125.412a5.563,5.563,0,0,1,1.579-.851l.008,20.756c.224,0,3.537-.445,4.957-.509,3.756-.169,11.356.523,14.231,2.277-1.664-.15-3.335-.546-5.067-.663a56.7,56.7,0,0,0-15.763,1.059C80.657,145.864,80.516,126.355,80.7,125.412Zm53.644-.851a5.281,5.281,0,0,1,1.584.851c.186.3.049,21.138.055,22.069a56.809,56.809,0,0,0-15.847-1.053c-1.68.13-3.374.526-4.976.653,1.956-1.118,6.512-1.886,8.83-2.114a40.373,40.373,0,0,1,8,.024c.742.077,1.66.3,2.361.328Z" transform="translate(-78.57 -116.741)" fill="url(#linear-gradient)" clip-rule="evenodd"/>
    </clipPath>
    <linearGradient id="linear-gradient-3" x1="0.134" y1="0.155" x2="0.943" y2="0.918" xlink:href="#linear-gradient"/>
    <clipPath id="clip-path-2">
      <path id="Контур_318" data-name="Контур 318" d="M123.506,82.5l17.45,12.512a2.008,2.008,0,0,1-.131,3.466L123.637,110.8a4.446,4.446,0,0,1-4.834.094l-17.45-12.512a2.008,2.008,0,0,1,.132-3.466l17.187-12.324a4.447,4.447,0,0,1,4.834-.094" transform="translate(-100.421 -81.831)" fill="none" clip-rule="evenodd"/>
    </clipPath>
    <linearGradient id="linear-gradient-4" x1="-0.395" y1="0.728" x2="1.171" y2="0.329" gradientUnits="objectBoundingBox">
      <stop offset="0" stop-color="#059ee4"/>
      <stop offset="0.2" stop-color="#059ee4"/>
      <stop offset="0.95" stop-color="#0073d5"/>
      <stop offset="1" stop-color="#0073d5"/>
    </linearGradient>
  </defs>
  <g id="Сгруппировать_213" data-name="Сгруппировать 213" transform="translate(-78.57 -81.831)">
    <g id="Сгруппировать_224" data-name="Сгруппировать 224" transform="translate(147.082 108.861)">
      <g id="Сгруппировать_222" data-name="Сгруппировать 222">
        <path id="Контур_305" data-name="Контур 305" d="M242.2,155.668a.264.264,0,0,1-.2-.087.28.28,0,0,1-.081-.195.5.5,0,0,1,.013-.12l3.192-8.624a.519.519,0,0,1,.161-.255.486.486,0,0,1,.335-.107h1.717a.487.487,0,0,1,.336.107.518.518,0,0,1,.161.255l3.192,8.624a.5.5,0,0,1,.013.12.28.28,0,0,1-.081.195.264.264,0,0,1-.2.087h-1.395a.4.4,0,0,1-.3-.094.476.476,0,0,1-.121-.174l-.577-1.5h-3.782l-.577,1.5a.476.476,0,0,1-.121.174.4.4,0,0,1-.295.094Zm2.883-3.5h2.776l-1.381-3.863Z" transform="translate(-241.923 -146.28)" fill="#434242"/>
        <path id="Контур_306" data-name="Контур 306" d="M266.753,155.668a.322.322,0,0,1-.335-.336v-8.717a.321.321,0,0,1,.335-.336h1.422a.321.321,0,0,1,.335.336v3.058l2.763-3.138a.668.668,0,0,1,.181-.167.6.6,0,0,1,.342-.087h1.623a.261.261,0,0,1,.2.087.28.28,0,0,1,.081.195.25.25,0,0,1-.054.161l-3.447,4.05,3.7,4.452a.22.22,0,0,1,.054.161.28.28,0,0,1-.081.195.264.264,0,0,1-.2.087H272a.53.53,0,0,1-.362-.107c-.081-.071-.134-.121-.161-.148l-2.964-3.433v3.353a.322.322,0,0,1-.335.336Z" transform="translate(-256.145 -146.28)" fill="#434242"/>
        <path id="Контур_307" data-name="Контур 307" d="M285.405,155.668a.262.262,0,0,1-.2-.087.28.28,0,0,1-.081-.195.5.5,0,0,1,.013-.12l3.192-8.624a.52.52,0,0,1,.161-.255.486.486,0,0,1,.335-.107h1.717a.487.487,0,0,1,.336.107.519.519,0,0,1,.161.255l3.192,8.624a.5.5,0,0,1,.013.12.28.28,0,0,1-.081.195.263.263,0,0,1-.2.087h-1.395a.4.4,0,0,1-.3-.094.469.469,0,0,1-.12-.174l-.577-1.5h-3.782l-.577,1.5a.476.476,0,0,1-.121.174.4.4,0,0,1-.295.094Zm2.883-3.5h2.776l-1.381-3.863Z" transform="translate(-267.005 -146.28)" fill="#434242"/>
        <path id="Контур_308" data-name="Контур 308" d="M309.953,155.668a.322.322,0,0,1-.335-.336v-8.717a.321.321,0,0,1,.335-.336h3.366a5.261,5.261,0,0,1,2.24.422,3.056,3.056,0,0,1,1.374,1.234,4.092,4.092,0,0,1,.5,2q.013.591.014,1.033t-.014,1.02a4.512,4.512,0,0,1-.5,2.066,2.8,2.8,0,0,1-1.341,1.213,5.429,5.429,0,0,1-2.213.4Zm1.8-1.73h1.569a2.607,2.607,0,0,0,1.1-.2,1.3,1.3,0,0,0,.637-.637,2.779,2.779,0,0,0,.221-1.133q.013-.389.02-.7t0-.617q-.007-.309-.02-.684a2.068,2.068,0,0,0-.516-1.482,2.094,2.094,0,0,0-1.509-.476h-1.5Z" transform="translate(-281.226 -146.28)" fill="#434242"/>
        <path id="Контур_309" data-name="Контур 309" d="M332.625,155.668a.322.322,0,0,1-.335-.336v-8.717a.321.321,0,0,1,.335-.336H338.7a.321.321,0,0,1,.335.336v1.072a.312.312,0,0,1-.094.228.327.327,0,0,1-.242.094h-4.346v2.105h4.05a.322.322,0,0,1,.336.335v.993a.31.31,0,0,1-.094.228.326.326,0,0,1-.242.094h-4.05v2.173h4.453a.321.321,0,0,1,.335.335v1.059a.322.322,0,0,1-.335.336Z" transform="translate(-294.389 -146.28)" fill="#434242"/>
        <path id="Контур_310" data-name="Контур 310" d="M352.77,155.668a.335.335,0,0,1-.235-.094.316.316,0,0,1-.1-.242v-8.717a.318.318,0,0,1,.1-.242.336.336,0,0,1,.235-.094h1.247a.392.392,0,0,1,.3.107c.068.072.114.125.141.161l2.468,4.546,2.494-4.546a.858.858,0,0,1,.128-.161.393.393,0,0,1,.3-.107H361.1a.321.321,0,0,1,.335.336v8.717a.322.322,0,0,1-.335.336h-1.368a.313.313,0,0,1-.229-.094.327.327,0,0,1-.094-.242v-5.418l-1.7,3.192a.824.824,0,0,1-.174.215.414.414,0,0,1-.282.094h-.631a.41.41,0,0,1-.281-.094.776.776,0,0,1-.174-.215l-1.7-3.192v5.418a.327.327,0,0,1-.094.242.312.312,0,0,1-.228.094Z" transform="translate(-306.085 -146.28)" fill="#434242"/>
        <path id="Контур_311" data-name="Контур 311" d="M386.026,155.668a.322.322,0,0,1-.336-.336v-8.717a.321.321,0,0,1,.336-.336h1.422a.321.321,0,0,1,.335.336v3.058l2.763-3.138a.668.668,0,0,1,.181-.167.594.594,0,0,1,.342-.087h1.623a.262.262,0,0,1,.2.087.28.28,0,0,1,.08.195.25.25,0,0,1-.054.161l-3.446,4.05,3.7,4.452a.22.22,0,0,1,.054.161.28.28,0,0,1-.081.195.263.263,0,0,1-.2.087h-1.676a.529.529,0,0,1-.362-.107c-.081-.071-.135-.121-.161-.148l-2.964-3.433v3.353a.321.321,0,0,1-.335.336Z" transform="translate(-325.393 -146.28)" fill="#434242"/>
        <path id="Контур_312" data-name="Контур 312" d="M406.714,155.668a.321.321,0,0,1-.335-.336v-8.717a.321.321,0,0,1,.335-.336h1.516a.321.321,0,0,1,.335.336v8.717a.321.321,0,0,1-.335.336Z" transform="translate(-337.404 -146.28)" fill="#434242"/>
        <path id="Контур_313" data-name="Контур 313" d="M417.758,155.668a.321.321,0,0,1-.335-.336v-7.189h-2.441a.32.32,0,0,1-.322-.322v-1.207a.329.329,0,0,1,.094-.242.311.311,0,0,1,.228-.094h7.028a.321.321,0,0,1,.335.336v1.207a.311.311,0,0,1-.094.228.327.327,0,0,1-.242.094h-2.427v7.189a.322.322,0,0,1-.336.336Z" transform="translate(-342.212 -146.28)" fill="#434242"/>
      </g>
      <g id="Сгруппировать_223" data-name="Сгруппировать 223" transform="translate(79.637)">
        <path id="Контур_314" data-name="Контур 314" d="M432.083,155.668a.264.264,0,0,1-.2-.087.28.28,0,0,1-.081-.195.48.48,0,0,1,.014-.12l3.192-8.624a.513.513,0,0,1,.161-.255.485.485,0,0,1,.335-.107h1.717a.485.485,0,0,1,.335.107.517.517,0,0,1,.161.255l3.192,8.624a.48.48,0,0,1,.014.12.28.28,0,0,1-.081.195.263.263,0,0,1-.2.087h-1.4a.4.4,0,0,1-.295-.094.476.476,0,0,1-.121-.174l-.577-1.5H434.47l-.577,1.5a.476.476,0,0,1-.121.174.4.4,0,0,1-.3.094Zm2.883-3.5h2.776l-1.382-3.863Z" transform="translate(-431.801 -146.28)" fill="#434242"/>
        <path id="Контур_315" data-name="Контур 315" d="M456.631,155.668a.321.321,0,0,1-.335-.336v-8.717a.321.321,0,0,1,.335-.336h3.661a4.839,4.839,0,0,1,1.884.336,2.721,2.721,0,0,1,1.247,1.012,2.982,2.982,0,0,1,.449,1.683,2.945,2.945,0,0,1-.449,1.684,2.672,2.672,0,0,1-1.247.986,5.032,5.032,0,0,1-1.884.322h-1.8v3.031a.322.322,0,0,1-.335.336Zm1.824-5.03h1.77a1.563,1.563,0,0,0,1.066-.335,1.267,1.267,0,0,0,.382-1.006,1.38,1.38,0,0,0-.342-.965,1.434,1.434,0,0,0-1.106-.375h-1.77Z" transform="translate(-446.022 -146.28)" fill="#434242"/>
      </g>
    </g>
    <g id="Сгруппировать_226" data-name="Сгруппировать 226" transform="translate(78.57 96.473)">
      <path id="Контур_316" data-name="Контур 316" d="M78.586,150.157c.589-.034,2.632-.645,3.438-.806a54.75,54.75,0,0,1,11.763-.94,50.986,50.986,0,0,1,7.708.853c3.718.65,5.929,2.319,8.661,1.343,7.3-2.608,17.032-2.778,24.536-1.239.757.155,2.805.758,3.366.788l.007-25.675a8.5,8.5,0,0,0-3.713-2.138l-.032-1.665a8.53,8.53,0,0,0-1.821-.874c-.742-.248-1.946-.363-2.032-.619a7.652,7.652,0,0,0-.067-2.152c-.865-.538-6.164-.2-7.447-.016a21.554,21.554,0,0,0-10.856,4.808l-3.784,3.993c-.284-.211-1.165-1.5-1.336-1.665-2.46-2.423-3.826-3.79-7.289-5.376A22.069,22.069,0,0,0,93.579,117c-1.27-.18-6.482-.494-7.352.028a7.748,7.748,0,0,0-.066,2.155c-.228.3-.613.242-1.062.353a8.875,8.875,0,0,0-2.814,1.14v1.666a8.406,8.406,0,0,0-3.716,2.138Zm30.778-3.37c-.1-1.879-.016-4-.016-5.909V129.149c0-1.285.053-1.164.734-2.177a12.158,12.158,0,0,1,2.069-2.392c.241-.231.5-.558.708-.743,4.346-3.917,9.759-5.128,15.534-4.973v20.242a24.185,24.185,0,0,0-11.383,1.953,20.531,20.531,0,0,0-4.222,2.527A43.461,43.461,0,0,0,109.365,146.787ZM88.244,118.864a22.784,22.784,0,0,1,10.187,1.592,18.345,18.345,0,0,1,6.832,4.9c.465.578.887,1.026,1.332,1.673a2.486,2.486,0,0,1,.685,2.227q0,2.906,0,5.812c0,2.951.125,9.174-.016,11.722a39.436,39.436,0,0,0-3.481-3.248A23.112,23.112,0,0,0,88.237,139.1ZM84.378,122a4.554,4.554,0,0,1,1.782-.527l.017,19.861a19.553,19.553,0,0,0,2.313-.153c4.779-.311,10.4.941,14.092,4.02-1.32-.426-2.529-.926-3.907-1.326a37.927,37.927,0,0,0-9.354-1.2l-4.952.194Zm46.106-.526a4.568,4.568,0,0,1,1.777.527l.006,20.873c-.645.052-1.724-.117-2.429-.145a41.879,41.879,0,0,0-7.382.272,33.042,33.042,0,0,0-4.338.827c-1.356.363-3.231,1.121-3.868,1.283,3.672-2.993,9.26-4.248,13.993-3.921a16.939,16.939,0,0,0,2.226.143ZM80.7,125.412a5.563,5.563,0,0,1,1.579-.851l.008,20.756c.224,0,3.537-.445,4.957-.509,3.756-.169,11.356.523,14.231,2.277-1.664-.15-3.335-.546-5.067-.663a56.7,56.7,0,0,0-15.763,1.059C80.657,145.864,80.516,126.355,80.7,125.412Zm53.644-.851a5.281,5.281,0,0,1,1.584.851c.186.3.049,21.138.055,22.069a56.809,56.809,0,0,0-15.847-1.053c-1.68.13-3.374.526-4.976.653,1.956-1.118,6.512-1.886,8.83-2.114a40.373,40.373,0,0,1,8,.024c.742.077,1.66.3,2.361.328Z" transform="translate(-78.57 -116.741)" fill-rule="evenodd" fill="url(#linear-gradient)"/>
      <g id="Сгруппировать_225" data-name="Сгруппировать 225" clip-path="url(#clip-path)">
        <rect id="Прямоугольник_345" data-name="Прямоугольник 345" width="59.495" height="35.09" transform="translate(0 -0.247)" fill="url(#linear-gradient-3)"/>
      </g>
    </g>
    <g id="Сгруппировать_228" data-name="Сгруппировать 228" transform="translate(87.734 81.831)">
      <g id="Сгруппировать_227" data-name="Сгруппировать 227" transform="translate(0)" clip-path="url(#clip-path-2)">
        <rect id="Прямоугольник_346" data-name="Прямоугольник 346" width="42.189" height="30.251" transform="translate(-0.361 -0.258)" fill="url(#linear-gradient-4)"/>
      </g>
    </g>
  </g>
</svg>
